<svg xmlns="http://www.w3.org/2000/svg" width="26" height="30.686" viewBox="0 0 26 30.686">
  <g id="Group_457" data-name="Group 457" transform="translate(-951 -2376)">
    <path id="Path_28" data-name="Path 28" d="M60.346,17.837a10.281,10.281,0,0,0-1.352-2.949L50.472.439a.9.9,0,0,0-1.554.011L40.505,14.99C35.295,24.227,45.579,34.3,54.846,29.4a6.5,6.5,0,1,0,5.5-11.565ZM40.91,19.945a7.712,7.712,0,0,1,1.159-4.064l7.643-13.2,7.738,13.128a12.191,12.191,0,0,1,.941,1.79,6.517,6.517,0,0,0-4.934,10.465A8.909,8.909,0,0,1,40.91,19.945ZM58.6,28.8a4.7,4.7,0,1,1,4.7-4.7A4.706,4.706,0,0,1,58.6,28.8Z" transform="translate(911.9 2376.001)" fill="#ffabab"/>
    <path id="Path_29" data-name="Path 29" d="M320.9,368.143l-2.008,2.008-.884-.747a.922.922,0,1,0-1.191,1.408l1.531,1.295a.922.922,0,0,0,1.248-.052l2.608-2.608a.922.922,0,1,0-1.3-1.3Z" transform="translate(650.901 2029.956)" fill="#ffabab"/>
  </g>
</svg>
