<svg id="Group_22" data-name="Group 22" xmlns="http://www.w3.org/2000/svg" width="26" height="26.632" viewBox="0 0 26 26.632">
  <rect id="Rectangle_45" data-name="Rectangle 45" width="11.878" height="1.925" transform="translate(3.597 5.857)" fill="#ff9a9a"/>
  <path id="Path_15" data-name="Path 15" d="M17.385,16.013A4.185,4.185,0,1,0,15.8,17.6L20.5,22.312l1.589-1.59Zm-1.888-.3a2.564,2.564,0,0,1-3.533,0,2.5,2.5,0,1,1,3.533,0Z" transform="translate(3.907 4.32)" fill="#ff9a9a"/>
  <path id="Path_16" data-name="Path 16" d="M19.144,23.525H2.583a.475.475,0,0,1-.475-.473V2.364a.474.474,0,0,1,.475-.475H19.144a.473.473,0,0,1,.473.475V12.917a4.95,4.95,0,0,1,1.891.862V2.364A2.366,2.366,0,0,0,19.144,0H2.583A2.367,2.367,0,0,0,.219,2.364V23.051a2.367,2.367,0,0,0,2.364,2.363H19.144c.989,0,1.456-.234,1.808-1.1L20.1,23.46A2.488,2.488,0,0,1,19.144,23.525Z" transform="translate(-0.219)" fill="#ff9a9a"/>
  <rect id="Rectangle_46" data-name="Rectangle 46" width="11.878" height="1.925" transform="translate(3.597 11.283)" fill="#ff9a9a"/>
</svg>
