<svg xmlns="http://www.w3.org/2000/svg" width="26" height="30.887" viewBox="0 0 26 30.887">
  <path id="XMLID_1117_" d="M62.609,19.023h3.906V17.214H62.609a3.844,3.844,0,0,0-3.839,3.839v.126a3.844,3.844,0,0,0,3.839,3.839h.067a2.03,2.03,0,1,1,0,4.06H58.151l-1.1-9.528a9.529,9.529,0,0,0-1.01-3.932,10.63,10.63,0,0,0-2.813-3.631c-.091-.074-.18-.153-.265-.234a2.728,2.728,0,0,1-.6-3,5,5,0,0,0,.363-1.874V6.785a4.689,4.689,0,0,0-1.383-3.337A4.36,4.36,0,0,0,49.323,2.2,7.116,7.116,0,0,0,48.063.812a2.9,2.9,0,0,0-3.14-.576l-.671.292.632,3.1C44,4.3,41.762,5.7,41.762,5.7l.448,2.232c.063.174.1.3.129.425a2.062,2.062,0,0,0,.563,1.05,2.6,2.6,0,0,0,.976.585.819.819,0,0,1,.517.932A64.73,64.73,0,0,0,43.01,18.9v6.662a2.668,2.668,0,0,0,.173,5.33H62.676a3.839,3.839,0,1,0,0-7.679h-.067a2.032,2.032,0,0,1-2.03-2.03v-.126a2.033,2.033,0,0,1,2.03-2.03Zm-20.285,9.2a.86.86,0,0,1,.859-.859h4.95V24.815a2.4,2.4,0,0,1,2.4-2.4h.9V20.6h-.9a4.187,4.187,0,0,0-2.4.756V19.4H46.324v6.154h-1.5V18.9a73.484,73.484,0,0,1,1.347-7.6A2.62,2.62,0,0,0,44.524,8.3a1.443,1.443,0,0,1-.327-.157,5.828,5.828,0,0,1-.262-.76l-.145-.742c.99-.647,2.448-1.769,2.646-1.922l.446-.344-.507-2.487A4.081,4.081,0,0,1,48.032,3.52l.221.329.391.061a2.422,2.422,0,0,1,1.428.818,2.891,2.891,0,0,1,.852,2.058v.093a3.2,3.2,0,0,1-.232,1.2,4.529,4.529,0,0,0,1.019,4.981c.121.117.249.23.38.336a8.915,8.915,0,0,1,3.155,6.212v.052l1.083,9.422H43.183a.86.86,0,0,1-.859-.859Z" transform="translate(-40.515 -0.001)" fill="#ffabab"/>
</svg>
