<svg id="Group_23" data-name="Group 23" xmlns="http://www.w3.org/2000/svg" width="26" height="29.714" viewBox="0 0 26 29.714">
  <path id="Path_17" data-name="Path 17" d="M57.59,2.015a.937.937,0,0,0-.865-.091c-.063.026-6.182,2.448-11.327.022C40.981-.139,36.117.836,33.857,1.5V.929A.929.929,0,0,0,32,.929V28.786a.929.929,0,1,0,1.857,0V18.3c1.645-.537,6.522-1.813,10.747.184a14.022,14.022,0,0,0,6.015,1.265,19.833,19.833,0,0,0,6.8-1.242A.932.932,0,0,0,58,17.643V2.786A.933.933,0,0,0,57.59,2.015Zm-1.447,14.97c-1.655.537-6.53,1.807-10.747-.184-4.414-2.084-9.278-1.109-11.538-.449V3.443c1.645-.537,6.522-1.813,10.747.184,4.411,2.082,9.278,1.109,11.538.448Z" transform="translate(-32)" fill="#ff9a9a"/>
</svg>
