<svg xmlns="http://www.w3.org/2000/svg" width="26" height="29.582" viewBox="0 0 26 29.582">
  <g id="Group_456" data-name="Group 456" transform="translate(-334 -1709.543)">
    <g id="Group_8" data-name="Group 8" transform="translate(334 1714.756)">
      <g id="Group_7" data-name="Group 7">
        <path id="Path_6" data-name="Path 6" d="M56.336,104.082A2.6,2.6,0,0,0,54.4,99.74H49.354a16.864,16.864,0,0,0,.713-4.4v-.868A3.474,3.474,0,0,0,46.6,91h-.867a.867.867,0,0,0-.841.658l-.472,1.892c-.662,2.65-2.762,5.574-4.935,6.1A2.6,2.6,0,0,0,37.067,98h-5.2a.868.868,0,0,0-.867.868V114.5a.868.868,0,0,0,.867.868h5.2a2.6,2.6,0,0,0,2.347-1.485l2.978.994a9.5,9.5,0,0,0,3.015.49h7.26a2.606,2.606,0,0,0,2.417-3.564,2.605,2.605,0,0,0,1.252-4.25,2.6,2.6,0,0,0,0-3.473Zm-18.4,8.682a.869.869,0,0,1-.867.868H32.733V99.74h4.333a.869.869,0,0,1,.867.868Zm14.733-7.814H54.4a.868.868,0,0,1,0,1.736H52.667a.868.868,0,0,0,0,1.736H54.4a.868.868,0,0,1,0,1.736H52.667a.868.868,0,0,0,0,1.736.868.868,0,0,1,0,1.736h-7.26a7.77,7.77,0,0,1-2.467-.4l-3.273-1.093V101.395a6.982,6.982,0,0,0,3.891-2.533A12.677,12.677,0,0,0,46.1,93.971l.308-1.235h.19a1.737,1.737,0,0,1,1.733,1.736v.868a13.761,13.761,0,0,1-.83,4.4h-1.77a.868.868,0,0,0,0,1.736H54.4a.868.868,0,0,1,0,1.736H52.667a.868.868,0,0,0,0,1.736Z" transform="translate(-31 -91)" fill="#ffa6a6"/>
      </g>
    </g>
    <g id="Group_10" data-name="Group 10" transform="translate(336.891 1734.459)">
      <g id="Group_9" data-name="Group 9" transform="translate(0 0)">
        <ellipse id="Ellipse_1" data-name="Ellipse 1" cx="1" cy="0.5" rx="1" ry="0.5" fill="#ffa6a6"/>
      </g>
    </g>
    <g id="Group_12" data-name="Group 12" transform="translate(349.609 1709.543)">
      <g id="Group_11" data-name="Group 11">
        <path id="Path_7" data-name="Path 7" d="M301.859,0A.859.859,0,0,0,301,.859V2.635a.859.859,0,0,0,1.719,0V.859A.859.859,0,0,0,301.859,0Z" transform="translate(-301)" fill="#ffa6a6"/>
      </g>
    </g>
    <g id="Group_14" data-name="Group 14" transform="translate(344.096 1711.866)">
      <g id="Group_13" data-name="Group 13">
        <path id="Path_8" data-name="Path 8" d="M208.223,42.009l-1.215-1.215a.859.859,0,0,0-1.215,1.215l1.215,1.215a.859.859,0,0,0,1.215-1.215Z" transform="translate(-205.54 -40.542)" fill="#ffa6a6"/>
      </g>
    </g>
    <g id="Group_16" data-name="Group 16" transform="translate(353.941 1711.866)">
      <g id="Group_15" data-name="Group 15">
        <path id="Path_9" data-name="Path 9" d="M377.929,40.793a.859.859,0,0,0-1.215,0L375.5,42.008a.859.859,0,0,0,1.215,1.215l1.215-1.215A.859.859,0,0,0,377.929,40.793Z" transform="translate(-375.247 -40.542)" fill="#ffa6a6"/>
      </g>
    </g>
  </g>
</svg>
